<?xml version="1.0" encoding="UTF-8" standalone="no"?>
<!-- Created with Inkscape (http://www.inkscape.org/) -->

<svg
   width="135.35854mm"
   height="129.8506mm"
   viewBox="0 0 135.35854 129.8506"
   version="1.1"
   id="svg1"
   xml:space="preserve"
   inkscape:version="1.4 (86a8ad7, 2024-10-11)"
   sodipodi:docname="LOGO.svg"
   xmlns:inkscape="http://www.inkscape.org/namespaces/inkscape"
   xmlns:sodipodi="http://sodipodi.sourceforge.net/DTD/sodipodi-0.dtd"
   xmlns="http://www.w3.org/2000/svg"
   xmlns:svg="http://www.w3.org/2000/svg"><sodipodi:namedview
     id="namedview1"
     pagecolor="#ffffff"
     bordercolor="#000000"
     borderopacity="0"
     inkscape:showpageshadow="2"
     inkscape:pageopacity="0.0"
     inkscape:pagecheckerboard="0"
     inkscape:deskcolor="#d1d1d1"
     inkscape:document-units="mm"
     inkscape:clip-to-page="false"
     inkscape:zoom="0.64"
     inkscape:cx="474.21875"
     inkscape:cy="119.53125"
     inkscape:window-width="1920"
     inkscape:window-height="1017"
     inkscape:window-x="-8"
     inkscape:window-y="-8"
     inkscape:window-maximized="1"
     inkscape:current-layer="layer1" /><defs
     id="defs1" /><g
     inkscape:label="Réteg 1"
     inkscape:groupmode="layer"
     id="layer1"
     transform="translate(-28.577896,-63.052041)"><path
       style="fill:#000000"
       d="m 58.65937,192.53265 c -5.09247,-1.40436 -8.702799,-6.08595 -8.702799,-11.28509 0,-1.06862 1.07054,-8.03727 2.645685,-17.22201 1.455127,-8.48491 2.645142,-15.72476 2.644477,-16.08856 -6.64e-4,-0.3638 -0.268488,-1.09096 -0.595164,-1.6159 -0.326676,-0.52495 -5.726113,-5.96445 -11.998749,-12.08778 -6.272636,-6.12333 -11.775849,-11.71156 -12.229363,-12.4183 -4.087778,-6.37025 -1.089031,-15.01318 6.079474,-17.52213 0.795039,-0.27826 8.309182,-1.49723 17.148753,-2.78193 9.142564,-1.32873 16.099855,-2.460416 16.607814,-2.701456 0.480788,-0.22815 1.090292,-0.72756 1.354454,-1.1098 0.264162,-0.38224 3.498881,-6.82671 7.188265,-14.32103 3.689383,-7.49432 7.082924,-14.22135 7.541194,-14.94896 2.36062,-3.74799 7.31497,-5.97684 11.63908,-5.23615 3.440089,0.58926 6.494239,2.54155 8.191399,5.23615 0.45827,0.72761 3.85181,7.45464 7.54119,14.94896 3.68938,7.49432 6.9241,13.93879 7.18827,14.32103 0.26416,0.38224 0.87366,0.88165 1.35445,1.1098 0.50796,0.24104 7.46525,1.372726 16.60781,2.701456 8.83957,1.2847 16.35372,2.50367 17.14876,2.78193 3.93814,1.37834 6.61711,4.42255 7.60983,8.64732 0.72246,3.07463 0.18259,6.2054 -1.53036,8.87481 -0.45351,0.70674 -5.95673,6.29497 -12.22936,12.4183 -6.27264,6.12333 -11.67208,11.56283 -11.99875,12.08778 -0.32668,0.52494 -0.5945,1.2521 -0.59517,1.6159 -6.6e-4,0.3638 1.18935,7.60365 2.64448,16.08856 1.57515,9.18474 2.64569,16.15339 2.64569,17.22201 0,5.26315 -3.63495,9.91791 -8.82391,11.29952 -1.9769,0.52637 -4.67322,0.46269 -6.50255,-0.15357 -0.85329,-0.28745 -7.90398,-3.85922 -15.66821,-7.93726 -12.413389,-6.51995 -14.260459,-7.41463 -15.307409,-7.41463 -1.04761,0 -2.89099,0.89448 -15.345832,7.44643 -7.785364,4.09554 -14.850425,7.66731 -15.700134,7.93727 -1.786022,0.56743 -4.711185,0.61534 -6.553315,0.10733 z m 17.623241,-14.56403 c 17.9218,-9.44633 16.2893,-8.73267 19.97604,-8.73267 3.68673,0 2.05424,-0.71366 19.976039,8.73267 14.22182,7.49612 14.62804,7.65636 16.47273,6.49801 1.18019,-0.74108 1.91362,-2.03363 1.91482,-3.37454 5.4e-4,-0.60964 -1.20184,-8.11058 -2.67197,-16.66875 -2.89582,-16.85768 -2.9354,-17.29416 -1.83478,-20.23584 0.3016,-0.80608 0.89659,-1.99133 1.32221,-2.6339 0.42561,-0.64257 5.94928,-6.20238 12.2748,-12.35513 7.02099,-6.82923 11.6764,-11.55656 11.95136,-12.136 0.54167,-1.14148 0.39669,-2.76802 -0.33396,-3.74664 -1.20783,-1.61775 -0.89847,-1.54831 -17.9371,-4.02657 -8.83891,-1.28561 -16.60755,-2.52039 -17.26365,-2.74394 -0.6561,-0.22356 -1.77129,-0.77761 -2.4782,-1.23124 -2.59201,-1.66329 -3.18487,-2.61921 -9.35181,-15.078816 -9.622689,-19.4416 -8.855779,-18.01627 -10.056119,-18.68962 -1.3437,-0.75377 -2.62505,-0.75377 -3.96875,0 -1.20034,0.67335 -0.43342,-0.75198 -10.056117,18.68962 -6.166935,12.459606 -6.759795,13.415526 -9.351807,15.078816 -0.706912,0.45363 -1.822101,1.00768 -2.4782,1.23124 -0.656098,0.22355 -8.42474,1.45833 -17.263648,2.74394 -17.038629,2.47826 -16.729275,2.40882 -17.937102,4.02657 -0.729161,0.97663 -0.875611,2.6052 -0.336448,3.7414 0.271757,0.57268 4.969726,5.34206 11.945316,12.12687 6.323568,6.15062 11.848349,11.71279 12.277292,12.36037 1.074108,1.62161 1.798873,3.67258 1.99709,5.65146 0.140239,1.40006 -0.260992,4.15963 -2.504794,17.22741 -1.469481,8.55817 -2.671338,16.05911 -2.670794,16.66875 0.0012,1.34091 0.734632,2.63346 1.914822,3.37454 1.844686,1.15835 2.250902,0.99811 16.47273,-6.49801 z m 16.26001,-21.57269 c -4.1774,-0.58512 -8.795937,-2.37713 -12.525012,-4.85975 -5.097609,-3.39373 -6.284064,-5.25428 -4.991358,-7.82725 0.731437,-1.45583 2.040085,-2.19109 3.667541,-2.0606 1.190152,0.0954 1.667442,0.34168 3.96875,2.0476 1.438746,1.06651 3.611689,2.40958 4.828749,2.9846 2.5075,1.18469 6.19149,2.04326 8.76736,2.04326 2.57586,0 6.259849,-0.85857 8.767349,-2.04326 1.21707,-0.57502 3.39001,-1.91809 4.82876,-2.9846 2.3013,-1.70592 2.77859,-1.95217 3.96875,-2.0476 1.098,-0.088 1.52729,0.009 2.27888,0.51568 1.80633,1.21746 2.37237,3.59975 1.25078,5.26409 -1.27326,1.88939 -6.2858,5.35818 -9.94261,6.88052 -4.49809,1.87256 -10.442749,2.70713 -14.867939,2.08731 z M 81.317573,129.80316 c -2.863609,-1.08946 -4.330319,-4.42529 -3.169469,-7.20852 1.673272,-4.01181 7.101727,-4.59342 9.574097,-1.02578 0.64334,0.92835 0.73124,1.29914 0.73124,3.0848 0,1.78565 -0.0879,2.15645 -0.73124,3.0848 -1.38596,1.99994 -4.194775,2.90544 -6.404628,2.0647 z m 26.541107,0.14886 c -1.25283,-0.37848 -2.33587,-1.16347 -3.07323,-2.22748 -0.63253,-0.91275 -0.7216,-1.29177 -0.7216,-3.07088 0,-1.78566 0.0879,-2.15645 0.73124,-3.0848 3.05241,-4.40463 10.00605,-2.21479 9.97858,3.14244 -0.018,3.51729 -3.60963,6.23927 -6.91499,5.24072 z"
       id="path1" /></g></svg>
